<svg width="30" height="30" viewBox="0 0 30 30" fill="none" xmlns="http://www.w3.org/2000/svg">
<path d="M14.9449 12.9449V17.2587H20.9349C20.3774 19.9999 18.0436 21.5749 14.9449 21.5749C11.3356 21.5252 8.43572 18.5852 8.43572 14.9755C8.43572 11.3659 11.3356 8.42584 14.9449 8.37616C16.4452 8.37437 17.8992 8.895 19.0574 9.84866L22.3074 6.59866C18.5794 3.32125 13.1349 2.89971 8.94684 5.56422C4.75878 8.22873 2.83367 13.3389 4.2227 18.1044C5.61173 22.8699 9.98108 26.1455 14.9449 26.1424C20.5286 26.1424 25.6061 22.0812 25.6061 14.9749C25.5975 14.2907 25.5137 13.6095 25.3561 12.9437L14.9449 12.9449Z" fill="url(#paint0_linear_1244_1199)"/>
<defs>
<linearGradient id="paint0_linear_1244_1199" x1="3.77588" y1="14.9811" x2="25.6061" y2="14.9811" gradientUnits="userSpaceOnUse">
<stop stop-color="#CAC531"/>
<stop offset="1" stop-color="#F3F9A7"/>
</linearGradient>
</defs>
</svg>
