<svg width="30" height="30" viewBox="0 0 30 30" fill="none" xmlns="http://www.w3.org/2000/svg">
<path d="M24.5313 27.5L21.9788 25.25L20.54 23.9125L19.0188 22.5L19.6438 24.6988H6.18377C4.83579 24.6939 3.74656 23.598 3.75001 22.25V6.19625C3.74794 4.84924 4.83676 3.75482 6.18377 3.75H22.0975C23.4445 3.75482 24.5333 4.84924 24.5313 6.19625V27.5ZM18.875 16.885C18.3479 17.5919 17.5891 18.091 16.7313 18.295C17.0838 18.745 17.5088 19.2538 17.5125 19.2588C18.9464 19.2891 20.3041 18.6147 21.1463 17.4538C21.1031 15.0471 20.5187 12.6811 19.4363 10.5313C18.4833 9.78346 17.3233 9.34704 16.1138 9.28125H16.1L15.9338 9.47125C17.0142 9.76144 18.0217 10.275 18.8913 10.9787C17.7848 10.3705 16.5706 9.98332 15.3163 9.83875C14.5191 9.75021 13.7141 9.75818 12.9188 9.8625C12.8625 9.86361 12.8065 9.86947 12.7513 9.88H12.7163C11.7842 9.98732 10.8748 10.2404 10.0213 10.63C9.59377 10.8263 9.33127 10.9687 9.32002 10.9737C9.30877 10.9787 9.32002 10.9737 9.32002 10.965C10.2424 10.2396 11.3065 9.71538 12.4438 9.42625L12.3188 9.28375H12.3113C11.1018 9.3497 9.94181 9.7861 8.98877 10.5338C7.9024 12.6822 7.31772 15.0491 7.27877 17.4563C8.11043 18.6248 9.47002 19.3018 10.9038 19.2613C10.9038 19.2613 11.3513 18.7162 11.7 18.275C10.8638 18.0648 10.1269 17.5698 9.61627 16.875C9.62502 16.8812 9.74877 16.965 9.94877 17.075C9.9622 17.0908 9.97881 17.1036 9.99752 17.1125C10.0134 17.1235 10.0301 17.1331 10.0475 17.1413C10.0673 17.1502 10.0861 17.1611 10.1038 17.1738C10.3827 17.3275 10.6721 17.4611 10.97 17.5738C11.5364 17.798 12.1222 17.9696 12.72 18.0862C13.2434 18.1849 13.7749 18.2351 14.3075 18.2362C14.8069 18.2362 15.3053 18.1902 15.7963 18.0988C16.3876 17.9949 16.9651 17.8238 17.5175 17.5888C17.9947 17.4052 18.45 17.1692 18.875 16.885ZM16.3275 16.3513C15.7837 16.3987 15.2665 16.1074 15.0252 15.6177C14.7838 15.1281 14.8678 14.5405 15.2367 14.1381C15.6055 13.7356 16.1836 13.6009 16.6924 13.7988C17.2012 13.9967 17.5363 14.4866 17.5363 15.0325C17.5638 15.7299 17.0234 16.3188 16.3263 16.3513H16.3275ZM11.9925 16.3513C11.3086 16.2916 10.7837 15.719 10.7837 15.0325C10.7837 14.346 11.3086 13.7734 11.9925 13.7138C12.3076 13.7147 12.6088 13.8432 12.8275 14.07C13.0757 14.3276 13.2107 14.6736 13.2025 15.0312C13.2315 15.7298 12.6898 16.3202 11.9913 16.3513H11.9925Z" fill="black"/>
</svg>
