<svg width="30" height="30" viewBox="0 0 30 30" fill="none" xmlns="http://www.w3.org/2000/svg">
<path d="M2.50244 15.0024C2.5039 21.1517 6.97544 26.3875 13.0487 27.3512V18.6149H9.87744V15.0024H13.0524V12.2524C12.9105 10.9494 13.3556 9.65067 14.267 8.7086C15.1784 7.76652 16.4616 7.2787 17.7687 7.37743C18.7069 7.39258 19.6427 7.47614 20.5687 7.62743V10.7012H18.9887C18.4447 10.6299 17.8979 10.8096 17.5022 11.1895C17.1064 11.5694 16.9047 12.1085 16.9537 12.6549V15.0024H20.4174L19.8637 18.6162H16.9537V27.3512C23.5218 26.3132 28.1276 20.3147 27.4343 13.7013C26.7411 7.08789 20.9916 2.17484 14.351 2.52141C7.71039 2.86797 2.5035 8.35282 2.50244 15.0024Z" fill="black"/>
</svg>
