<svg width="599" height="936" viewBox="0 0 599 936" fill="none" xmlns="http://www.w3.org/2000/svg">
<path fill-rule="evenodd" clip-rule="evenodd" d="M350.863 9.12805H241.295V370.604C211.285 341.492 179.333 326.936 145.44 326.936C90.1442 326.936 51.9149 349.464 30.7522 394.52C10.2722 439.576 0.0322266 501.357 0.0322266 579.864V694.552C0.0322266 780.568 11.9789 842.349 35.8722 879.896C59.7656 916.76 97.3122 935.192 148.512 935.192C183.328 935.192 215.072 919.832 243.744 889.112V927H353.312V559.589C384.65 592.658 417.284 609.192 451.215 609.192C505.146 609.192 543.034 587.005 564.88 542.632C587.408 497.576 598.672 438.867 598.672 366.504V223.144C598.672 167.165 589.456 116.307 571.023 70.5681C553.274 24.1467 517.434 0.936035 463.504 0.936035C420.495 0.936035 382.949 19.368 350.863 56.2321V9.12805ZM241.295 436.92V795.56H243.744V826.648C220.534 841.667 198.006 849.176 176.16 849.176C149.536 849.176 131.787 836.888 122.912 812.312C114.038 787.736 109.6 751.555 109.6 703.768V536.856C109.6 454.253 131.104 412.952 174.112 412.952C194.589 412.952 216.984 420.941 241.295 436.92ZM353.312 498.334C376.549 514.895 402.016 523.176 429.711 523.176C454.97 523.176 471.013 510.547 477.84 485.288C485.349 459.347 489.103 419.752 489.103 366.504V223.144C489.103 179.453 485.007 146.003 476.815 122.792C468.623 98.8987 451.557 86.952 425.615 86.952C401.195 86.952 377.094 96.5234 353.312 115.666V498.334Z" fill="white" fill-opacity="0.04"/>
</svg>
