<svg width="87" height="120" viewBox="0 0 87 120" fill="none" xmlns="http://www.w3.org/2000/svg">
<path d="M65.6 52.3824L64.0936 53.2511L64.9592 54.752L66.4629 53.892L65.6 52.3824ZM63.5131 48.765L62.6502 47.2555L61.134 48.1216L62.0066 49.6337L63.5131 48.765ZM71.3044 44.3129L70.4653 42.7894L70.4415 42.8033L71.3044 44.3129ZM35.2697 5.91302V4.17389H33.5306V5.91302H35.2697ZM35.2697 99.1301V100.869H37.0088V99.1301H35.2697ZM31.0958 99.1301H29.3567V100.869H31.0958V99.1301ZM31.0958 1.73912V0H29.3567V1.73912H31.0958ZM75.7565 8.55648L74.7298 9.9603L74.7436 9.97022L75.7565 8.55648ZM73.3913 47.9303L72.5421 46.4129L72.5284 46.4207L73.3913 47.9303ZM67.1065 51.5137L65.0195 47.8963L62.0066 49.6337L64.0936 53.2511L67.1065 51.5137ZM64.3759 50.2746L72.1672 45.8224L70.4415 42.8033L62.6502 47.2555L64.3759 50.2746ZM72.1433 45.8363C75.5862 43.9398 78.2365 41.4416 80.0148 38.3225C81.7913 35.2077 82.6434 31.5712 82.6434 27.4782H79.1652C79.1652 31.0834 78.4174 34.1025 76.9935 36.599C75.5723 39.092 73.4224 41.1607 70.4654 42.7894L72.1433 45.8363ZM82.6434 27.4782C82.6434 19.7721 79.6669 13.8017 73.6503 9.85066C67.7618 5.98311 59.1496 4.17389 48.0697 4.17389V7.65214C58.8795 7.65214 66.6847 9.43709 71.741 12.7582C76.6696 15.9947 79.1652 20.8077 79.1652 27.4782H82.6434ZM48.0697 4.17389H35.2697V7.65214H48.0697V4.17389ZM33.5306 5.91302V99.1301H37.0088V5.91302H33.5306ZM35.2697 97.3909H31.0958V100.869H35.2697V97.3909ZM32.8349 99.1301V1.73912H29.3567V99.1301H32.8349ZM31.0958 3.47824H48.0697V0H31.0958V3.47824ZM48.0697 3.47824C60.1456 3.47824 68.9429 5.72798 74.7299 9.96022L76.7831 7.15275C70.1412 2.29521 60.4806 0 48.0697 0V3.47824ZM74.7436 9.97022C80.4669 14.0704 83.3391 19.8321 83.3391 27.4782H86.8173C86.8173 18.7999 83.4747 11.9466 76.7694 7.14275L74.7436 9.97022ZM83.3391 27.4782C83.3391 31.8686 82.4191 35.5833 80.6469 38.6851C78.8756 41.7833 76.2007 44.3659 72.5421 46.4129L74.2405 49.4476C78.373 47.1355 81.5417 44.1294 83.666 40.4103C85.7895 36.6946 86.8173 32.3634 86.8173 27.4782H83.3391ZM72.5284 46.4207L64.7372 50.8729L66.4629 53.892L74.2542 49.4398L72.5284 46.4207Z" fill="#0A0B0D"/>
<path d="M65.6 52.3824L64.0936 53.2511L64.9592 54.752L66.4629 53.892L65.6 52.3824ZM63.5131 48.765L62.6502 47.2555L61.134 48.1216L62.0066 49.6337L63.5131 48.765ZM71.3044 44.3129L70.4653 42.7894L70.4415 42.8033L71.3044 44.3129ZM35.2697 5.91302V4.17389H33.5306V5.91302H35.2697ZM35.2697 99.1301V100.869H37.0088V99.1301H35.2697ZM31.0958 99.1301H29.3567V100.869H31.0958V99.1301ZM31.0958 1.73912V0H29.3567V1.73912H31.0958ZM75.7565 8.55648L74.7298 9.9603L74.7436 9.97022L75.7565 8.55648ZM73.3913 47.9303L72.5421 46.4129L72.5284 46.4207L73.3913 47.9303ZM67.1065 51.5137L65.0195 47.8963L62.0066 49.6337L64.0936 53.2511L67.1065 51.5137ZM64.3759 50.2746L72.1672 45.8224L70.4415 42.8033L62.6502 47.2555L64.3759 50.2746ZM72.1433 45.8363C75.5862 43.9398 78.2365 41.4416 80.0148 38.3225C81.7913 35.2077 82.6434 31.5712 82.6434 27.4782H79.1652C79.1652 31.0834 78.4174 34.1025 76.9935 36.599C75.5723 39.092 73.4224 41.1607 70.4654 42.7894L72.1433 45.8363ZM82.6434 27.4782C82.6434 19.7721 79.6669 13.8017 73.6503 9.85066C67.7618 5.98311 59.1496 4.17389 48.0697 4.17389V7.65214C58.8795 7.65214 66.6847 9.43709 71.741 12.7582C76.6696 15.9947 79.1652 20.8077 79.1652 27.4782H82.6434ZM48.0697 4.17389H35.2697V7.65214H48.0697V4.17389ZM33.5306 5.91302V99.1301H37.0088V5.91302H33.5306ZM35.2697 97.3909H31.0958V100.869H35.2697V97.3909ZM32.8349 99.1301V1.73912H29.3567V99.1301H32.8349ZM31.0958 3.47824H48.0697V0H31.0958V3.47824ZM48.0697 3.47824C60.1456 3.47824 68.9429 5.72798 74.7299 9.96022L76.7831 7.15275C70.1412 2.29521 60.4806 0 48.0697 0V3.47824ZM74.7436 9.97022C80.4669 14.0704 83.3391 19.8321 83.3391 27.4782H86.8173C86.8173 18.7999 83.4747 11.9466 76.7694 7.14275L74.7436 9.97022ZM83.3391 27.4782C83.3391 31.8686 82.4191 35.5833 80.6469 38.6851C78.8756 41.7833 76.2007 44.3659 72.5421 46.4129L74.2405 49.4476C78.373 47.1355 81.5417 44.1294 83.666 40.4103C85.7895 36.6946 86.8173 32.3634 86.8173 27.4782H83.3391ZM72.5284 46.4207L64.7372 50.8729L66.4629 53.892L74.2542 49.4398L72.5284 46.4207Z" fill="url(#paint0_radial_1404_1199)"/>
<path d="M21.2173 67.6176L22.7237 66.7489L21.8582 65.2481L20.3544 66.1081L21.2173 67.6176ZM23.3043 71.235L24.1671 72.7445L25.6834 71.8785L24.8107 70.3663L23.3043 71.235ZM15.513 75.6872L16.352 77.2106L16.3759 77.1967L15.513 75.6872ZM51.5476 114.087V115.826H53.2868V114.087H51.5476ZM51.5476 20.87V19.1309H49.8085V20.87H51.5476ZM55.7215 20.87H57.4607V19.1309H55.7215V20.87ZM55.7215 118.261V120H57.4607V118.261H55.7215ZM11.0608 111.444L12.0875 110.04L12.0737 110.03L11.0608 111.444ZM13.426 72.0698L14.2753 73.5872L14.2889 73.5793L13.426 72.0698ZM19.7109 68.4863L21.7978 72.1037L24.8107 70.3663L22.7237 66.7489L19.7109 68.4863ZM22.4414 69.7254L14.6501 74.1776L16.3759 77.1967L24.1671 72.7445L22.4414 69.7254ZM14.674 74.1637C11.2311 76.0602 8.58101 78.5585 6.80223 81.6776C5.02624 84.7923 4.1739 88.4288 4.1739 92.5219H7.65214C7.65214 88.9167 8.39979 85.8975 9.82379 83.401C11.245 80.908 13.3949 78.8393 16.3519 77.2106L14.674 74.1637ZM4.1739 92.5219C4.1739 100.228 7.15075 106.198 13.167 110.15C19.0556 114.017 27.6677 115.826 38.7477 115.826V112.348C27.9378 112.348 20.1326 110.563 15.0764 107.242C10.1477 104.005 7.65214 99.1923 7.65214 92.5219H4.1739ZM38.7477 115.826H51.5476V112.348H38.7477V115.826ZM53.2868 114.087V20.87H49.8085V114.087H53.2868ZM51.5476 22.6091H55.7215V19.1309H51.5476V22.6091ZM53.9824 20.87V118.261H57.4607V20.87H53.9824ZM55.7215 116.522H38.7477V120H55.7215V116.522ZM38.7477 116.522C26.6717 116.522 17.8745 114.272 12.0874 110.04L10.0342 112.847C16.6761 117.705 26.3368 120 38.7477 120V116.522ZM12.0737 110.03C6.35015 105.93 3.47825 100.168 3.47825 92.5219H0C0 101.2 3.3426 108.053 10.048 112.857L12.0737 110.03ZM3.47825 92.5219C3.47825 88.1315 4.39833 84.4167 6.17085 81.315C7.94136 78.2167 10.6167 75.6341 14.2753 73.5872L12.5768 70.5524C8.44414 72.8645 5.27598 75.8706 3.15086 79.5897C1.02774 83.3054 0 87.6367 0 92.5219H3.47825ZM14.2889 73.5793L22.0802 69.1272L20.3544 66.1081L12.5632 70.5602L14.2889 73.5793Z" fill="#0A0B0D"/>
<path d="M21.2173 67.6176L22.7237 66.7489L21.8582 65.2481L20.3544 66.1081L21.2173 67.6176ZM23.3043 71.235L24.1671 72.7445L25.6834 71.8785L24.8107 70.3663L23.3043 71.235ZM15.513 75.6872L16.352 77.2106L16.3759 77.1967L15.513 75.6872ZM51.5476 114.087V115.826H53.2868V114.087H51.5476ZM51.5476 20.87V19.1309H49.8085V20.87H51.5476ZM55.7215 20.87H57.4607V19.1309H55.7215V20.87ZM55.7215 118.261V120H57.4607V118.261H55.7215ZM11.0608 111.444L12.0875 110.04L12.0737 110.03L11.0608 111.444ZM13.426 72.0698L14.2753 73.5872L14.2889 73.5793L13.426 72.0698ZM19.7109 68.4863L21.7978 72.1037L24.8107 70.3663L22.7237 66.7489L19.7109 68.4863ZM22.4414 69.7254L14.6501 74.1776L16.3759 77.1967L24.1671 72.7445L22.4414 69.7254ZM14.674 74.1637C11.2311 76.0602 8.58101 78.5585 6.80223 81.6776C5.02624 84.7923 4.1739 88.4288 4.1739 92.5219H7.65214C7.65214 88.9167 8.39979 85.8975 9.82379 83.401C11.245 80.908 13.3949 78.8393 16.3519 77.2106L14.674 74.1637ZM4.1739 92.5219C4.1739 100.228 7.15075 106.198 13.167 110.15C19.0556 114.017 27.6677 115.826 38.7477 115.826V112.348C27.9378 112.348 20.1326 110.563 15.0764 107.242C10.1477 104.005 7.65214 99.1923 7.65214 92.5219H4.1739ZM38.7477 115.826H51.5476V112.348H38.7477V115.826ZM53.2868 114.087V20.87H49.8085V114.087H53.2868ZM51.5476 22.6091H55.7215V19.1309H51.5476V22.6091ZM53.9824 20.87V118.261H57.4607V20.87H53.9824ZM55.7215 116.522H38.7477V120H55.7215V116.522ZM38.7477 116.522C26.6717 116.522 17.8745 114.272 12.0874 110.04L10.0342 112.847C16.6761 117.705 26.3368 120 38.7477 120V116.522ZM12.0737 110.03C6.35015 105.93 3.47825 100.168 3.47825 92.5219H0C0 101.2 3.3426 108.053 10.048 112.857L12.0737 110.03ZM3.47825 92.5219C3.47825 88.1315 4.39833 84.4167 6.17085 81.315C7.94136 78.2167 10.6167 75.6341 14.2753 73.5872L12.5768 70.5524C8.44414 72.8645 5.27598 75.8706 3.15086 79.5897C1.02774 83.3054 0 87.6367 0 92.5219H3.47825ZM14.2889 73.5793L22.0802 69.1272L20.3544 66.1081L12.5632 70.5602L14.2889 73.5793Z" fill="url(#paint1_radial_1404_1199)"/>
<defs>
<radialGradient id="paint0_radial_1404_1199" cx="0" cy="0" r="1" gradientUnits="userSpaceOnUse" gradientTransform="translate(86.8173) rotate(180) scale(51.9444 273.557)">
<stop stop-color="white" stop-opacity="0.18"/>
<stop offset="0.599333" stop-color="white" stop-opacity="0.06"/>
<stop offset="1" stop-color="white" stop-opacity="0"/>
</radialGradient>
<radialGradient id="paint1_radial_1404_1199" cx="0" cy="0" r="1" gradientUnits="userSpaceOnUse" gradientTransform="translate(57.4607 19.1308) rotate(180) scale(51.9444 273.557)">
<stop stop-color="white" stop-opacity="0.18"/>
<stop offset="0.599333" stop-color="white" stop-opacity="0.06"/>
<stop offset="1" stop-color="white" stop-opacity="0"/>
</radialGradient>
</defs>
</svg>
