<svg width="33" height="33" viewBox="0 0 33 33" fill="none" xmlns="http://www.w3.org/2000/svg">
<path d="M20.0673 16.2404L19.8591 16.3605L19.9787 16.5679L20.1866 16.449L20.0673 16.2404ZM19.7789 15.7404L19.6596 15.5317L19.45 15.6514L19.5706 15.8605L19.7789 15.7404ZM20.8558 15.125L20.7398 14.9144L20.7365 14.9163L20.8558 15.125ZM15.875 9.81731V9.57692H15.6346V9.81731H15.875ZM15.875 22.7019V22.9423H16.1154V22.7019H15.875ZM15.2981 22.7019H15.0577V22.9423H15.2981V22.7019ZM15.2981 9.24038V9H15.0577V9.24038H15.2981ZM21.4712 10.1827L21.3293 10.3767L21.3312 10.3781L21.4712 10.1827ZM21.1442 15.625L21.0269 15.4153L21.025 15.4163L21.1442 15.625ZM20.2755 16.1203L19.9871 15.6203L19.5706 15.8605L19.8591 16.3605L20.2755 16.1203ZM19.8981 15.949L20.975 15.3336L20.7365 14.9163L19.6596 15.5317L19.8981 15.949ZM20.9717 15.3356C21.4476 15.0734 21.814 14.7281 22.0597 14.297C22.3053 13.8665 22.4231 13.3638 22.4231 12.7981H21.9423C21.9423 13.2964 21.839 13.7137 21.6422 14.0588C21.4457 14.4034 21.1485 14.6893 20.7398 14.9144L20.9717 15.3356ZM22.4231 12.7981C22.4231 11.7329 22.0117 10.9077 21.18 10.3616C20.3661 9.82699 19.1757 9.57692 17.6442 9.57692V10.0577C19.1384 10.0577 20.2172 10.3044 20.9161 10.7635C21.5974 11.2108 21.9423 11.8761 21.9423 12.7981H22.4231ZM17.6442 9.57692H15.875V10.0577H17.6442V9.57692ZM15.6346 9.81731V22.7019H16.1154V9.81731H15.6346ZM15.875 22.4615H15.2981V22.9423H15.875V22.4615ZM15.5385 22.7019V9.24038H15.0577V22.7019H15.5385ZM15.2981 9.48077H17.6442V9H15.2981V9.48077ZM17.6442 9.48077C19.3134 9.48077 20.5294 9.79173 21.3293 10.3767L21.6131 9.98867C20.695 9.31725 19.3597 9 17.6442 9V9.48077ZM21.3312 10.3781C22.1222 10.9448 22.5192 11.7412 22.5192 12.7981H23C23 11.5986 22.538 10.6513 21.6112 9.98728L21.3312 10.3781ZM22.5192 12.7981C22.5192 13.4049 22.3921 13.9184 22.1471 14.3471C21.9023 14.7754 21.5326 15.1323 21.0269 15.4153L21.2616 15.8347C21.8328 15.5151 22.2708 15.0996 22.5644 14.5856C22.8579 14.072 23 13.4733 23 12.7981H22.5192ZM21.025 15.4163L19.9481 16.0317L20.1866 16.449L21.2635 15.8336L21.025 15.4163Z" fill="url(#paint0_linear_1228_1250)"/>
<path d="M13.9327 18.3462L14.1409 18.2261L14.0213 18.0187L13.8134 18.1376L13.9327 18.3462ZM14.2212 18.8462L14.3404 19.0549L14.55 18.9351L14.4294 18.7261L14.2212 18.8462ZM13.1442 19.4616L13.2602 19.6722L13.2635 19.6702L13.1442 19.4616ZM18.125 24.7693V25.0097H18.3654V24.7693H18.125ZM18.125 11.8847V11.6443H17.8846V11.8847H18.125ZM18.7019 11.8847H18.9423V11.6443H18.7019V11.8847ZM18.7019 25.3462V25.5866H18.9423V25.3462H18.7019ZM12.5288 24.4039L12.6708 24.2099L12.6688 24.2085L12.5288 24.4039ZM12.8558 18.9616L12.9731 19.1713L12.975 19.1702L12.8558 18.9616ZM13.7245 18.4663L14.0129 18.9663L14.4294 18.7261L14.1409 18.2261L13.7245 18.4663ZM14.1019 18.6376L13.025 19.2529L13.2635 19.6702L14.3404 19.0549L14.1019 18.6376ZM13.0283 19.251C12.5524 19.5132 12.1861 19.8585 11.9402 20.2896C11.6947 20.7201 11.5769 21.2228 11.5769 21.7885H12.0577C12.0577 21.2902 12.161 20.8729 12.3579 20.5278C12.5543 20.1832 12.8515 19.8973 13.2602 19.6722L13.0283 19.251ZM11.5769 21.7885C11.5769 22.8537 11.9884 23.6789 12.82 24.225C13.6339 24.7595 14.8243 25.0097 16.3558 25.0097V24.5289C14.8616 24.5289 13.7828 24.2821 13.0839 23.8231C12.4026 23.3758 12.0577 22.7105 12.0577 21.7885H11.5769ZM16.3558 25.0097H18.125V24.5289H16.3558V25.0097ZM18.3654 24.7693V11.8847H17.8846V24.7693H18.3654ZM18.125 12.1251H18.7019V11.6443H18.125V12.1251ZM18.4615 11.8847V25.3462H18.9423V11.8847H18.4615ZM18.7019 25.1058H16.3558V25.5866H18.7019V25.1058ZM16.3558 25.1058C14.6866 25.1058 13.4706 24.7949 12.6707 24.2099L12.3869 24.5979C13.305 25.2694 14.6403 25.5866 16.3558 25.5866V25.1058ZM12.6688 24.2085C11.8777 23.6418 11.4808 22.8454 11.4808 21.7885H11C11 22.988 11.462 23.9353 12.3888 24.5993L12.6688 24.2085ZM11.4808 21.7885C11.4808 21.1817 11.6079 20.6682 11.8529 20.2395C12.0977 19.8112 12.4675 19.4543 12.9731 19.1713L12.7384 18.7519C12.1672 19.0714 11.7293 19.4869 11.4355 20.001C11.1421 20.5146 11 21.1133 11 21.7885H11.4808ZM12.975 19.1702L14.052 18.5549L13.8134 18.1376L12.7365 18.7529L12.975 19.1702Z" fill="url(#paint1_linear_1228_1250)"/>
<path d="M1 0.5H0.5V1V32V32.5H1H32H32.5V32V1V0.5H32H1Z" stroke="url(#paint2_linear_1228_1250)"/>
<defs>
<linearGradient id="paint0_linear_1228_1250" x1="13.3942" y1="16.0913" x2="24.2115" y2="16.0913" gradientUnits="userSpaceOnUse">
<stop stop-color="#CAC531"/>
<stop offset="1" stop-color="#F3F9A7"/>
</linearGradient>
<linearGradient id="paint1_linear_1228_1250" x1="20.6058" y1="18.4952" x2="9.78846" y2="18.4952" gradientUnits="userSpaceOnUse">
<stop stop-color="#CAC531"/>
<stop offset="1" stop-color="#F3F9A7"/>
</linearGradient>
<linearGradient id="paint2_linear_1228_1250" x1="1" y1="16.5" x2="32" y2="16.5" gradientUnits="userSpaceOnUse">
<stop stop-color="#CAC531"/>
<stop offset="1" stop-color="#F3F9A7"/>
</linearGradient>
</defs>
</svg>
