<svg width="100" height="13" viewBox="0 0 100 13" fill="none" xmlns="http://www.w3.org/2000/svg">
<path d="M3.76582 3.85308C4.89008 3.85308 5.83153 4.42892 6.26113 5.0596V4.00847H7.97951V11.8234H6.74557C6.61738 11.8225 6.49472 11.7711 6.40408 11.6805C6.31343 11.5899 6.26209 11.4672 6.26113 11.339V10.7814C5.82239 11.403 4.89008 11.988 3.76582 11.988C1.62698 11.988 0 10.1599 0 7.92967C0 5.69943 1.61601 3.85308 3.76582 3.85308ZM4.07659 5.41608C2.68726 5.41608 1.7458 6.51292 1.7458 7.91139C1.7458 9.30986 2.67812 10.4158 4.07659 10.4158C5.47506 10.4158 6.40738 9.319 6.40738 7.92053C6.40738 6.52206 5.46592 5.41608 4.07659 5.41608V5.41608ZM9.93372 4.00847H11.6521V5.06874C12.1183 4.29182 13.014 3.85308 14.0286 3.85308C15.8384 3.85308 17.0083 5.13273 17.0083 7.11618V11.8143H15.7835C15.6553 11.8133 15.5327 11.762 15.442 11.6714C15.3514 11.5807 15.3 11.4581 15.2991 11.3299V7.39953C15.2991 6.16558 14.6775 5.41608 13.6721 5.41608C12.5296 5.41608 11.6612 6.30269 11.6612 7.97537V11.8143H10.4273C10.2991 11.8133 10.1764 11.762 10.0858 11.6714C9.99516 11.5807 9.94381 11.4581 9.94286 11.3299L9.93372 4.00847ZM22.1288 3.85308C23.253 3.85308 24.1945 4.42892 24.6241 5.0596V0.105548H26.3424V11.8234H25.1176C24.9895 11.8225 24.8668 11.7711 24.7762 11.6805C24.6855 11.5899 24.6342 11.4672 24.6332 11.339V10.7814C24.1945 11.403 23.2622 11.988 22.1379 11.988C19.9991 11.988 18.3721 10.1599 18.3721 7.92967C18.3721 5.69943 19.9899 3.85308 22.1288 3.85308V3.85308ZM22.4487 5.41608C21.0593 5.41608 20.1179 6.51292 20.1179 7.91139C20.1179 9.30986 21.0593 10.4067 22.4487 10.4067C23.838 10.4067 24.7795 9.30986 24.7795 7.91139C24.7795 6.51292 23.838 5.41608 22.4487 5.41608V5.41608ZM28.2985 4.00847H30.0169V5.3978C30.1682 4.96997 30.4478 4.59918 30.8174 4.33587C31.187 4.07255 31.6288 3.92951 32.0826 3.9262C32.3066 3.92439 32.5302 3.94584 32.7498 3.99019V5.75427C32.4726 5.66287 32.1825 5.61658 31.8906 5.61716C30.9035 5.61716 30.0169 6.44893 30.0169 8.01193V11.8234H28.7829C28.6547 11.8225 28.5321 11.7711 28.4414 11.6805C28.3508 11.5899 28.2994 11.4672 28.2985 11.339V4.00847ZM37.384 11.9788C35.0715 11.9788 33.2891 10.1782 33.2891 7.92053C33.2891 5.66287 35.0715 3.86222 37.384 3.86222C39.6965 3.86222 41.4788 5.66287 41.4788 7.92053C41.4788 10.1782 39.6965 11.9788 37.384 11.9788ZM37.384 10.3884C38.755 10.3884 39.7239 9.30986 39.7239 7.92053C39.7239 6.5312 38.755 5.45264 37.384 5.45264C35.9946 5.45264 35.0258 6.5312 35.0258 7.92053C35.0258 9.30986 35.9946 10.3884 37.384 10.3884ZM43.7365 2.30837C43.5853 2.30837 43.4355 2.27858 43.2958 2.2207C43.156 2.16282 43.0291 2.07799 42.9221 1.97105C42.8152 1.8641 42.7304 1.73714 42.6725 1.59742C42.6146 1.45769 42.5848 1.30793 42.5848 1.15669C42.5848 1.00544 42.6146 0.855685 42.6725 0.715957C42.7304 0.576228 42.8152 0.449268 42.9221 0.342324C43.0291 0.235381 43.156 0.150549 43.2958 0.0926714C43.4355 0.034794 43.5853 0.00500488 43.7365 0.00500488C43.8877 0.00500488 44.0375 0.034794 44.1772 0.0926714C44.317 0.150549 44.4439 0.235381 44.5509 0.342324C44.6578 0.449268 44.7426 0.576228 44.8005 0.715957C44.8584 0.855685 44.8882 1.00544 44.8882 1.15669C44.8882 1.30793 44.8584 1.45769 44.8005 1.59742C44.7426 1.73714 44.6578 1.8641 44.5509 1.97105C44.4439 2.07799 44.317 2.16282 44.1772 2.2207C44.0375 2.27858 43.8877 2.30837 43.7365 2.30837ZM42.8773 4.00847H44.5957V11.8234H43.3709C43.2427 11.8225 43.12 11.7711 43.0294 11.6805C42.9388 11.5899 42.8874 11.4672 42.8865 11.339L42.8773 4.00847ZM49.7691 3.85308C50.8934 3.85308 51.8348 4.42892 52.2644 5.0596V0.105548H53.9828V11.8234H52.7489C52.6207 11.8225 52.498 11.7711 52.4074 11.6805C52.3167 11.5899 52.2654 11.4672 52.2644 11.339V10.7814C51.8257 11.403 50.8934 11.988 49.7691 11.988C47.6303 11.988 46.0033 10.1599 46.0033 7.92967C46.0033 5.69943 47.6303 3.85308 49.7691 3.85308V3.85308ZM50.0799 5.41608C48.6906 5.41608 47.7491 6.51292 47.7491 7.91139C47.7491 9.30986 48.6906 10.4158 50.0799 10.4158C51.4692 10.4158 52.4107 9.319 52.4107 7.92053C52.4107 6.52206 51.4692 5.41608 50.0799 5.41608V5.41608ZM60.8289 11.8234C60.456 11.8235 60.0846 11.7774 59.723 11.6863C59.3876 11.6039 59.0712 11.4581 58.7906 11.2567C58.5161 11.0663 58.288 10.8163 58.1234 10.5255C57.9507 10.2131 57.8477 9.86697 57.8218 9.51094H58.8912C58.9436 9.74047 59.0398 9.95773 59.1745 10.1508C59.2948 10.3198 59.4508 10.4602 59.6315 10.5621C59.8123 10.6618 60.0061 10.7357 60.2074 10.7814C60.4089 10.8243 60.6139 10.8488 60.8198 10.8546C61.219 10.8629 61.6133 10.7651 61.9623 10.5712C62.1157 10.4857 62.2423 10.3592 62.3278 10.2058C62.4134 10.0525 62.4546 9.87833 62.4468 9.70289C62.4507 9.54987 62.4243 9.39758 62.3691 9.25482C62.3139 9.11206 62.2309 8.98165 62.125 8.87112C61.9148 8.65175 61.5583 8.47809 61.0648 8.34098L60.0776 8.09419C59.4286 7.92053 58.9351 7.64632 58.5969 7.27156C58.2613 6.88826 58.0848 6.39132 58.1033 5.88223C58.0972 5.59041 58.1631 5.30158 58.2952 5.04132C58.4251 4.79583 58.6059 4.58083 58.8254 4.41064C59.0637 4.23129 59.3334 4.098 59.6206 4.01761C59.9447 3.92604 60.28 3.87989 60.6169 3.8805C60.9868 3.87413 61.355 3.93292 61.7046 4.05417C61.9993 4.16426 62.2741 4.32171 62.5181 4.52033C62.9591 4.89458 63.2377 5.42545 63.295 6.00106H62.2347C62.1309 5.65297 61.9153 5.3488 61.6211 5.13564C61.327 4.92249 60.9708 4.81224 60.6077 4.82196C60.249 4.81394 59.8959 4.91255 59.5932 5.10531C59.4611 5.18662 59.3528 5.30119 59.279 5.43754C59.2052 5.5739 59.1686 5.72725 59.1727 5.88223C59.1681 6.01831 59.1908 6.15393 59.2394 6.2811C59.2881 6.40826 59.3618 6.52438 59.4561 6.6226C59.648 6.82369 59.9679 6.97907 60.4249 7.10704L61.604 7.40867C62.2164 7.56405 62.6826 7.82912 63.0208 8.21302C63.359 8.59691 63.5235 9.07221 63.5144 9.64805C63.5234 9.99204 63.4514 10.3333 63.3041 10.6443C63.1723 10.9147 62.9742 11.1474 62.7283 11.3207C62.468 11.5026 62.1769 11.6358 61.8691 11.7138C61.5266 11.7827 61.1783 11.8194 60.8289 11.8234V11.8234ZM68.1686 11.7412C67.8776 11.7396 67.5883 11.6966 67.3094 11.6132C67.0537 11.5322 66.8194 11.3948 66.6239 11.211C66.4237 11.0183 66.2678 10.7844 66.1669 10.5255C66.0488 10.2134 65.9929 9.88112 66.0024 9.5475V5.02304H64.3662V4.01761H66.0024V1.88791H67.0718V4.01761H69.302V5.02304H67.0718V9.44696C67.0718 9.93444 67.1815 10.2726 67.4008 10.4615C67.6202 10.6535 67.931 10.7449 68.3423 10.7449C68.5108 10.7437 68.679 10.7284 68.845 10.6992C69.0007 10.6736 69.1536 10.6338 69.302 10.5804V11.5401C68.941 11.6805 68.5559 11.7488 68.1686 11.7412V11.7412ZM73.7716 11.8234C73.3868 11.8272 73.0049 11.7557 72.6474 11.6132C72.313 11.4762 72.011 11.2707 71.7608 11.01C71.5024 10.7364 71.3027 10.4129 71.174 10.0594C71.0311 9.65749 70.9599 9.23364 70.9637 8.80714V4.01761H72.0332V8.65175C72.0332 9.319 72.2068 9.83999 72.5542 10.233C72.7206 10.4249 72.9273 10.5776 73.1596 10.6803C73.3918 10.783 73.6439 10.8331 73.8978 10.8271C74.2086 10.827 74.5151 10.7551 74.7935 10.6169C75.0756 10.4714 75.3246 10.2691 75.5248 10.0228C75.7443 9.73766 75.9114 9.41579 76.0183 9.07221C76.1405 8.66627 76.1991 8.24385 76.192 7.81998V4.01761H77.2614V11.6681H76.192V10.3793C75.9535 10.8354 75.5886 11.213 75.1409 11.467C74.722 11.6997 74.2509 11.8223 73.7716 11.8234V11.8234ZM82.7383 11.8234C82.2194 11.8263 81.7057 11.7205 81.2302 11.5127C80.7734 11.312 80.3627 11.0195 80.0236 10.6535C79.6768 10.2888 79.4036 9.86047 79.2193 9.39212C78.8354 8.39808 78.8354 7.29672 79.2193 6.30269C79.4036 5.83433 79.6768 5.40602 80.0236 5.04132C80.3622 4.6755 80.7722 4.38307 81.2283 4.18213C81.7295 3.96267 82.273 3.85704 82.8199 3.87285C83.3667 3.88865 83.9033 4.0255 84.3909 4.27354C84.8658 4.51207 85.2722 4.86751 85.5718 5.30639V0.187811H86.6412V11.6681H85.5718V10.3793C85.2727 10.8179 84.8669 11.1733 84.3927 11.4121C83.8837 11.6838 83.3153 11.8251 82.7383 11.8234V11.8234ZM82.8389 10.8271C83.22 10.83 83.5977 10.7544 83.9483 10.605C84.299 10.4556 84.6152 10.2357 84.8772 9.95882C85.1269 9.68422 85.3223 9.36476 85.453 9.01736C85.7272 8.26463 85.7272 7.43931 85.453 6.68658C85.3259 6.33468 85.1302 6.01156 84.8772 5.73599C84.6269 5.46889 84.3265 5.25371 83.9931 5.10272C83.6596 4.95173 83.2997 4.86791 82.9339 4.85602C82.5681 4.84414 82.2035 4.90444 81.861 5.03346C81.5185 5.16249 81.2047 5.35773 80.9377 5.60802L80.8097 5.73599C80.5579 6.01248 80.3623 6.33535 80.2339 6.68658C79.9597 7.43931 79.9597 8.26463 80.2339 9.01736C80.361 9.36647 80.5568 9.68658 80.8097 9.95882C81.0693 10.2362 81.3838 10.4567 81.7331 10.6062C82.0824 10.7556 82.4589 10.8309 82.8389 10.8271ZM89.4199 1.71425C89.3112 1.71808 89.2028 1.69888 89.102 1.65793C89.0012 1.61698 88.9102 1.55518 88.8349 1.4766C88.7589 1.40122 88.6985 1.31152 88.6573 1.21269C88.6161 1.11385 88.5949 1.00784 88.5949 0.900757C88.5949 0.793678 88.6161 0.68766 88.6573 0.588825C88.6985 0.489989 88.7589 0.400293 88.8349 0.324916C88.9879 0.17265 89.1949 0.0871667 89.4108 0.0871667C89.6266 0.0871667 89.8336 0.17265 89.9866 0.324916C90.136 0.47936 90.2196 0.68585 90.2196 0.900757C90.2196 1.11566 90.136 1.32215 89.9866 1.4766C89.9144 1.55414 89.8265 1.61544 89.7288 1.65641C89.6311 1.69739 89.5258 1.7171 89.4199 1.71425V1.71425ZM88.8715 4.00847H89.9409V11.6589H88.8715V4.00847ZM95.5787 11.8234C95.0269 11.8301 94.4796 11.7243 93.97 11.5127C93.4966 11.313 93.0678 11.0209 92.7086 10.6535C91.9828 9.89781 91.5774 8.89063 91.5774 7.84283C91.5774 6.79503 91.9828 5.78786 92.7086 5.03218C93.0678 4.6648 93.4966 4.37271 93.97 4.17299C95.0012 3.75256 96.1561 3.75256 97.1874 4.17299C97.6607 4.37271 98.0896 4.6648 98.4487 5.03218C99.1746 5.78786 99.5799 6.79503 99.5799 7.84283C99.5799 8.89063 99.1746 9.89781 98.4487 10.6535C98.0896 11.0209 97.6607 11.313 97.1874 11.5127C96.6765 11.72 96.13 11.8256 95.5787 11.8234V11.8234ZM95.5787 10.8271C96.1609 10.839 96.7324 10.6693 97.2139 10.3418C97.6954 10.0142 98.0631 9.54497 98.2659 8.99908C98.5401 8.25263 98.5401 7.43304 98.2659 6.68658C98.064 6.14008 97.6966 5.67022 97.2148 5.34252C96.7331 5.01482 96.1611 4.84562 95.5787 4.85852C95.1671 4.85064 94.7587 4.9317 94.3813 5.09617C94.0349 5.24264 93.7234 5.46068 93.4672 5.73599C93.2126 6.01206 93.014 6.33488 92.8823 6.68658C92.6081 7.43304 92.6081 8.25263 92.8823 8.99908C93.0126 9.35145 93.2114 9.67453 93.4672 9.94968C93.7234 10.225 94.0349 10.443 94.3813 10.5895C94.7613 10.7453 95.1679 10.8261 95.5787 10.8271Z" fill="white"/>
</svg>
