<svg width="52" height="72" viewBox="0 0 52 72" fill="none" xmlns="http://www.w3.org/2000/svg">
<g clip-path="url(#clip0)">
<path d="M40.7478 2.6642H36.4346L40.9211 7.44249V9.71499H31.6779V7.05366H36.1644L31.6779 2.27537V0H40.7508L40.7478 2.6642ZM29.8428 2.6642H25.5237L30.0161 7.44249V9.71499H20.77V7.05366H25.2565L20.77 2.27537V0H29.8428V2.6642ZM19.0435 2.77365H14.3897V6.94421H19.0435V9.71787H11.0776V0H19.0435V2.77365Z" fill="white"/>
<path d="M4.73315 66.2193L0 14.1534H52L47.261 66.2107L25.9677 72L4.73315 66.2193Z" fill="#1572B6"/>
<path d="M26 67.5761L43.2061 62.8957L47.2522 18.4104H26V67.5761Z" fill="#33A9DC"/>
<path d="M26 37.2729H34.6148L35.2079 30.7348H26V24.3523H42.3252L42.1696 26.066L40.5694 43.6641H26V37.2729Z" fill="white"/>
<path d="M26.0355 53.8575H26.0061L18.7567 51.9364L18.2928 46.8441H11.7627L12.6758 56.8702L26.012 60.5108H26.0502V53.8575H26.0355Z" fill="#EBEBEB"/>
<path d="M34.0632 43.385L33.2793 51.9306L26.0181 53.8517V60.5051L39.3631 56.876L39.46 55.7959L40.5933 43.3821H34.0632V43.385Z" fill="white"/>
<path d="M26.0229 24.3523V30.7377H10.3026L10.1675 29.3034L9.87095 26.066L9.71533 24.3523H26.0229ZM25.9994 37.2729V43.6584H18.8322L18.7059 42.224L18.4094 38.9867L18.2538 37.2729H25.9965H25.9994Z" fill="#EBEBEB"/>
</g>
<defs>
<clipPath id="clip0">
<rect width="52" height="72" fill="white"/>
</clipPath>
</defs>
</svg>
