<svg width="64" height="64" viewBox="0 0 64 64" fill="none" xmlns="http://www.w3.org/2000/svg">
<path d="M31.9998 58.6666C20.4372 58.6666 10.6665 53.2399 10.6665 46.8159V17.1839C10.6665 10.7599 20.4372 5.33325 31.9998 5.33325C43.5625 5.33325 53.3332 10.7599 53.3332 17.1839V46.8159C53.3332 53.2399 43.5652 58.6666 31.9998 58.6666ZM15.9998 39.7333V46.8239C16.1865 48.2986 22.1572 52.7493 31.9998 52.7493C41.8425 52.7493 47.8158 48.2853 47.9998 46.8079V39.7333C43.1449 42.5476 37.6103 43.9746 31.9998 43.8586C26.3893 43.9747 20.8547 42.5477 15.9998 39.7333ZM15.9998 24.9093V31.9999C16.1865 33.4746 22.1572 37.9253 31.9998 37.9253C41.8425 37.9253 47.8158 33.4613 47.9998 31.9839V24.9093C43.1452 27.7247 37.6106 29.1526 31.9998 29.0373C26.3891 29.1527 20.8544 27.7248 15.9998 24.9093ZM31.9998 11.2586C22.1545 11.2586 16.1838 15.7226 15.9998 17.2026C16.1865 18.6666 22.1625 23.1093 31.9998 23.1093C41.8372 23.1093 47.8158 18.6453 47.9998 17.1679C47.8132 15.6986 41.8372 11.2586 31.9998 11.2586Z" fill="#F0DB4F"/>
</svg>
