<svg width="72" height="26" viewBox="0 0 72 26" fill="none" xmlns="http://www.w3.org/2000/svg">
<g clip-path="url(#clip0)">
<path d="M8.50233 0H12.4378V18.2169C10.419 18.6002 8.93675 18.7537 7.32668 18.7537C2.52204 18.7534 0.0175781 16.5815 0.0175781 12.4157C0.0175781 8.40333 2.67552 5.79682 6.78988 5.79682C7.42873 5.79682 7.91426 5.84776 8.50233 6.00109V0ZM8.50233 9.16979C8.04236 9.01663 7.65905 8.96552 7.17336 8.96552C5.17998 8.96552 4.02989 10.1923 4.02989 12.3388C4.02989 14.4346 5.12887 15.5845 7.14781 15.5845C7.58222 15.5845 7.94014 15.5591 8.50233 15.4825V9.16979Z" fill="#2AD594"/>
<path d="M18.699 6.07768V15.201C18.699 18.3445 18.4688 19.8523 17.779 21.1556C17.14 22.4081 16.2965 23.2001 14.5589 24.0692L10.9043 22.3314C12.6421 21.5135 13.4854 20.7981 14.0221 19.6988C14.5844 18.5746 14.7635 17.271 14.7635 13.8466V6.07768H18.699ZM14.7635 0.020874H18.699V4.05875H14.7635V0.020874ZM21.0762 6.97208C22.8142 6.15451 24.4752 5.79675 26.2897 5.79675C28.3086 5.79675 29.6374 6.33322 30.2253 7.38111C30.5574 7.96885 30.6596 8.73547 30.6596 10.3713V18.37C28.896 18.6256 26.6728 18.8046 25.0374 18.8046C21.7407 18.8046 20.2583 17.6542 20.2583 15.0988C20.2583 12.3384 22.2261 11.0607 27.0561 10.6517V9.78286C27.0561 9.06735 26.6984 8.81197 25.7016 8.81197C24.245 8.81197 22.6094 9.22083 21.0758 10.0132L21.0762 6.97208V6.97208ZM27.2353 13.2333C24.6285 13.4889 23.7851 13.8977 23.7851 14.9201C23.7851 15.6865 24.2707 16.0443 25.344 16.0443C25.9319 16.0443 26.4684 15.9933 27.2352 15.8656L27.2353 13.2333ZM32.5765 6.69098C34.9019 6.07768 36.8186 5.79675 38.7609 5.79675C40.7799 5.79675 42.2366 6.25656 43.1058 7.15112C43.9235 7.99424 44.1789 8.91419 44.1789 10.8823V18.6H40.2432V11.0357C40.2432 9.52798 39.7321 8.96546 38.3267 8.96546C37.79 8.96546 37.3045 9.01657 36.512 9.24655V18.6H32.5765V6.69098ZM45.7088 20.7467C47.0891 21.4624 48.469 21.7943 49.9256 21.7943C52.5064 21.7943 53.6054 20.7467 53.6054 18.2421V18.1654C52.8389 18.5486 52.072 18.7021 51.05 18.7021C47.5998 18.7021 45.4017 16.4276 45.4017 12.8245C45.4017 8.35183 48.6475 5.82198 54.3974 5.82198C56.0841 5.82198 57.6433 6.00069 59.5343 6.384L58.1867 9.22281C57.1389 9.01838 58.1027 9.19545 57.3109 9.11878V9.52781L57.3618 11.1887L57.3872 13.3355C57.4128 13.872 57.4128 14.4088 57.4385 14.9454V16.019C57.4385 19.3923 57.1574 20.9767 56.3143 22.2801C55.0875 24.197 52.9662 25.1423 49.9506 25.1423C48.4172 25.1423 47.0888 24.9124 45.7085 24.3757L45.7088 20.7467V20.7467ZM53.529 8.99101H53.1203C52.3539 8.96546 51.4595 9.16973 50.8459 9.55304C49.9005 10.0898 49.4145 11.0611 49.4145 12.441C49.4145 14.409 50.3861 15.5333 52.1237 15.5333C52.6604 15.5333 53.095 15.431 53.6057 15.2778V13.9234C53.6057 13.4633 53.5805 12.9519 53.5805 12.4156L53.5551 10.6012L53.5294 9.29783L53.529 8.99101V8.99101ZM65.6443 5.74548C69.5798 5.74548 71.9822 8.22456 71.9822 12.2367C71.9822 16.3514 69.4779 18.9325 65.491 18.9325C61.5552 18.9325 59.1272 16.4535 59.1272 12.4669C59.1275 8.32644 61.6322 5.74548 65.6443 5.74548V5.74548ZM65.5673 15.7633C67.0752 15.7633 67.9698 14.511 67.9698 12.3388C67.9698 10.1922 67.1008 8.91435 65.5932 8.91435C64.0341 8.91435 63.1394 10.1668 63.1394 12.3388C63.1397 14.5112 64.0343 15.7633 65.5673 15.7633V15.7633Z" fill="#2AD594"/>
</g>
<defs>
<clipPath id="clip0">
<rect width="72" height="25.1424" fill="white"/>
</clipPath>
</defs>
</svg>
