<svg width="52" height="72" viewBox="0 0 52 72" fill="none" xmlns="http://www.w3.org/2000/svg">
<path d="M4.73224 66.2144L0 14.1519H52L47.2626 66.2062L25.9681 71.9968L4.73224 66.2144Z" fill="#E44D26"/>
<path d="M26 67.5712L43.2068 62.8918L47.2555 18.4091H26V67.5712Z" fill="#F16529"/>
<path d="M26 37.7177H17.386L16.7909 31.1792H26V24.7938H9.67627L9.83227 26.5069L11.4322 44.1029H26V37.7177ZM26 54.3008L25.9714 54.3084L18.7214 52.3881L18.2579 47.2958H11.7232L12.6353 57.3216L25.9702 60.9525L26 60.9443V54.3008Z" fill="#EBEBEB"/>
<path d="M4.83789 0.00341797H8.14604V3.2093H11.1722V0.00341797H14.4805V9.71172H11.1722V6.46086H8.14604V9.71172H4.83813L4.83789 0.00341797ZM18.8311 3.22298H15.9189V0.00341797H25.0535V3.22298H22.1398V9.71172H18.8312V3.22298H18.8311ZM26.503 0.00341797H29.9527L32.0747 3.41471L34.1946 0.00341797H37.6455V9.71172H34.3504V4.89965L32.0743 8.35151H32.0175L29.7399 4.89965V9.71172H26.5029V0.00341797H26.503ZM39.2917 0.00341797H42.6008V6.50282H47.2533V9.71172H39.2917V0.00341797Z" fill="white"/>
<path d="M25.9775 37.7177V44.1029H33.9938L33.238 52.3842L25.9775 54.3061V60.9492L39.3231 57.3216L39.4207 56.2425L40.9507 39.4324L41.1095 37.7177H39.3555H25.9775ZM25.9775 24.7938V31.1792H41.702L41.8323 29.7438L42.129 26.5069L42.2847 24.7938H25.9775Z" fill="white"/>
</svg>
